<svg xmlns="http://www.w3.org/2000/svg" width="1200" height="420" viewBox="0 0 1200 420" role="img" aria-labelledby="title desc">
  <title id="title">styx</title>
  <desc id="desc">FINANCE STORE</desc>
  <defs>
    <radialGradient id="bg" cx="0.32" cy="0.42" r="0.95" gradientUnits="userSpaceOnUse">
      <stop offset="0" stop-color="#15101F"/>
      <stop offset="0.55" stop-color="#0C0F16"/>
      <stop offset="1" stop-color="#0B0E11"/>
    </radialGradient>
    <linearGradient id="acc" x1="0" y1="0" x2="1" y2="0">
      <stop offset="0" stop-color="#7C5CFF"/>
      <stop offset="1" stop-color="#9B7BFF"/>
    </linearGradient>
    <linearGradient id="panel" x1="0" y1="0" x2="0" y2="1">
      <stop offset="0" stop-color="#161B26"/>
      <stop offset="1" stop-color="#10131B"/>
    </linearGradient>
  </defs>
  <rect width="1200" height="420" fill="url(#bg)"/>
  <rect x="598" y="56" width="1" height="312" fill="#222838"/>
  <text x="64" y="74" font-family="-apple-system,BlinkMacSystemFont,Segoe UI,sans-serif" font-size="12" letter-spacing="3" fill="#7C5CFF">FINANCE STORE</text>
  <text x="62" y="128" font-family="-apple-system,BlinkMacSystemFont,Segoe UI,sans-serif" font-size="50" font-weight="700" fill="#F4F6FB">styx</text>
  <rect x="64" y="146" width="52" height="4" rx="2" fill="url(#acc)"/>
<text x="64" y="176" font-family="-apple-system,BlinkMacSystemFont,Segoe UI,sans-serif" font-size="17" fill="#C7CEDB">Transaction store +</text>
<text x="64" y="204" font-family="-apple-system,BlinkMacSystemFont,Segoe UI,sans-serif" font-size="17" fill="#C7CEDB">merchant enrichment</text>
<text x="64" y="232" font-family="-apple-system,BlinkMacSystemFont,Segoe UI,sans-serif" font-size="17" fill="#C7CEDB">categorized history</text>
<rect x="640" y="70" width="500" height="44" rx="8" fill="url(#panel)" stroke="#2A3350"/>
<rect x="656" y="82" width="120" height="20" rx="10" fill="#28C840" opacity="0.25"/><text x="664" y="97" font-family="-apple-system,BlinkMacSystemFont,Segoe UI,sans-serif" font-size="12" fill="#28C840">groceries</text>
<rect x="900" y="86" width="120" height="12" rx="6" fill="#1C2230"/>
<rect x="640" y="126" width="500" height="44" rx="8" fill="url(#panel)" stroke="#2A3350"/>
<rect x="656" y="138" width="120" height="20" rx="10" fill="#7C5CFF" opacity="0.25"/><text x="664" y="153" font-family="-apple-system,BlinkMacSystemFont,Segoe UI,sans-serif" font-size="12" fill="#7C5CFF">travel</text>
<rect x="900" y="142" width="120" height="12" rx="6" fill="#1C2230"/>
<rect x="640" y="182" width="500" height="44" rx="8" fill="url(#panel)" stroke="#2A3350"/>
<rect x="656" y="194" width="120" height="20" rx="10" fill="#9B7BFF" opacity="0.25"/><text x="664" y="209" font-family="-apple-system,BlinkMacSystemFont,Segoe UI,sans-serif" font-size="12" fill="#9B7BFF">dining</text>
<rect x="900" y="198" width="120" height="12" rx="6" fill="#1C2230"/>
<rect x="640" y="238" width="500" height="44" rx="8" fill="url(#panel)" stroke="#2A3350"/>
<rect x="656" y="250" width="120" height="20" rx="10" fill="#FFB454" opacity="0.25"/><text x="664" y="265" font-family="-apple-system,BlinkMacSystemFont,Segoe UI,sans-serif" font-size="12" fill="#FFB454">software</text>
<rect x="900" y="254" width="120" height="12" rx="6" fill="#1C2230"/>
<rect x="640" y="294" width="500" height="44" rx="8" fill="url(#panel)" stroke="#2A3350"/>
<rect x="656" y="306" width="120" height="20" rx="10" fill="#5CC8FF" opacity="0.25"/><text x="664" y="321" font-family="-apple-system,BlinkMacSystemFont,Segoe UI,sans-serif" font-size="12" fill="#5CC8FF">utilities</text>
<rect x="900" y="310" width="120" height="12" rx="6" fill="#1C2230"/>

</svg>